<svg aria-hidden="true" style="width:0;height:0;position:absolute;overflow:hidden" xmlns="http://www.w3.org/2000/svg"><defs><symbol id="icon-facebook" viewBox="0 0 32 32"><path d="M21.328 5.312h2.923V.224A36.483 36.483 0 0 0 20.143 0h-.156.008c-4.213 0-7.099 2.65-7.099 7.52V12H8.25v5.688h4.646V32h5.699V17.69h4.459l.707-5.688h-5.168V8.08c0-1.643.443-2.768 2.734-2.768z"/></symbol><symbol id="icon-github" viewBox="0 0 28 32"><path d="M12.094 27.337a1.336 1.336 0 0 0-.995-1.29 1.332 1.332 0 0 0-.579-.021c-1.745.32-3.949.369-4.535-1.277a7.61 7.61 0 0 0-2.449-3.22 1.545 1.545 0 0 1-.222-.146 1.336 1.336 0 0 0-1.241-.861h-.006a1.332 1.332 0 0 0-1.334 1.327c-.005 1.087 1.081 1.784 1.522 2.019.52.522.938 1.137 1.232 1.813.486 1.365 1.897 3.435 5.954 3.168l.003.131.006.357a1.335 1.335 0 0 0 2.277.943c.25-.25.391-.589.391-.943l-.007-.425a51.968 51.968 0 0 1-.016-1.576zM26.316 7.169c.042-.167.084-.352.121-.56a8.368 8.368 0 0 0-.544-4.391 1.337 1.337 0 0 0-.821-.774c-.475-.16-2.227-.475-5.579 1.667a18.481 18.481 0 0 0-8.472 0C7.683 1 5.94 1.287 5.47 1.438a1.335 1.335 0 0 0-.842.779 8.394 8.394 0 0 0-.538 4.475c.033.171.068.328.104.473A8.357 8.357 0 0 0 2.52 12.27c-.004.41.015.821.057 1.229.445 6.137 4.445 7.979 7.232 8.612a6.156 6.156 0 0 0-.158.534 1.332 1.332 0 0 0 1.984 1.457c.303-.182.52-.477.605-.82a2.24 2.24 0 0 1 .624-1.171 1.334 1.334 0 0 0-.728-2.328c-4.605-.526-6.605-2.402-6.906-6.531a8.989 8.989 0 0 1-.045-.984 5.68 5.68 0 0 1 1.487-3.926 1.335 1.335 0 0 0 .25-1.366 4.553 4.553 0 0 1-.207-.741 5.449 5.449 0 0 1 .105-2.154c1.159.327 2.25.86 3.22 1.573a1.353 1.353 0 0 0 1.104.177 15.707 15.707 0 0 1 8.23.001 1.334 1.334 0 0 0 1.108-.183 10.094 10.094 0 0 1 3.207-1.587c.177.687.217 1.402.117 2.104a4.287 4.287 0 0 1-.225.81 1.333 1.333 0 0 0 .25 1.366c.103.116.206.241.298.358a5.503 5.503 0 0 1 1.203 3.568c.002.346-.014.692-.05 1.036-.294 4.074-2.301 5.952-6.928 6.479a1.34 1.34 0 0 0-1.122.927 1.334 1.334 0 0 0 .394 1.401c.331.327.549.751.622 1.211.09.357.131.725.123 1.093v3.112c-.013.863-.013 1.51-.013 1.807a1.334 1.334 0 0 0 2.668 0c0-.289 0-.923.013-1.786v-3.133a6.526 6.526 0 0 0-.206-1.749 5.638 5.638 0 0 0-.155-.555 8.688 8.688 0 0 0 7.261-8.565c.044-.425.064-.852.061-1.279a8.174 8.174 0 0 0-1.684-5.102z"/></symbol><symbol id="icon-instagram" viewBox="0 0 28 32"><path d="M14.006 8.813c-3.975 0-7.181 3.206-7.181 7.181s3.206 7.181 7.181 7.181 7.181-3.206 7.181-7.181-3.206-7.181-7.181-7.181zm0 11.85c-2.569 0-4.669-2.094-4.669-4.669s2.094-4.669 4.669-4.669 4.669 2.094 4.669 4.669-2.1 4.669-4.669 4.669zm9.15-12.144c0 .931-.75 1.675-1.675 1.675a1.675 1.675 0 1 1 1.675-1.675zm4.757 1.7c-.106-2.244-.619-4.231-2.262-5.869-1.637-1.638-3.625-2.15-5.869-2.263-2.313-.131-9.244-.131-11.556 0-2.237.106-4.225.619-5.869 2.256S.207 7.968.094 10.212c-.131 2.313-.131 9.244 0 11.556.106 2.244.619 4.231 2.263 5.869s3.625 2.15 5.869 2.262c2.313.131 9.244.131 11.556 0 2.244-.106 4.231-.619 5.869-2.262 1.637-1.637 2.15-3.625 2.262-5.869.131-2.313.131-9.238 0-11.55zM24.925 24.25a4.728 4.728 0 0 1-2.663 2.663c-1.844.731-6.219.563-8.256.563s-6.419.163-8.256-.563a4.728 4.728 0 0 1-2.663-2.663c-.731-1.844-.563-6.219-.563-8.256s-.163-6.419.563-8.256A4.72 4.72 0 0 1 5.75 5.076c1.844-.731 6.219-.563 8.256-.563s6.419-.162 8.256.563a4.727 4.727 0 0 1 2.663 2.662c.731 1.844.563 6.219.563 8.256s.169 6.419-.563 8.256z"/></symbol><symbol id="icon-heart" viewBox="0 0 34 32"><path d="m17.231 31.705-2.412-2.412C5.859 21.367.001 16.025.001 9.478.001 4.136 4.136.001 9.478.001c2.929 0 5.858 1.378 7.754 3.618 1.895-2.24 4.825-3.618 7.754-3.618 5.342 0 9.477 4.135 9.477 9.477 0 6.548-5.858 11.889-14.818 19.815l-2.412 2.412z"/></symbol></defs></svg>