<svg aria-hidden="true" style="position: absolute; width: 0; height: 0; overflow: hidden;" version="1.1" xmlns="http://www.w3.org/2000/svg" xmlns:xlink="http://www.w3.org/1999/xlink">
<defs>
<symbol id="icon-facebook" viewBox="0 0 32 32">
<path d="M21.328 5.312h2.923v-5.088c-1.232-0.143-2.66-0.224-4.108-0.224-0.052 0-0.104 0-0.156 0l0.008-0c-4.213 0-7.099 2.65-7.099 7.52v4.48h-4.646v5.688h4.646v14.312h5.699v-14.31h4.459l0.707-5.688h-5.168v-3.922c0-1.643 0.443-2.768 2.734-2.768z"></path>
</symbol>
<symbol id="icon-github" viewBox="0 0 28 32">
<path d="M12.094 27.337c-0-0.195-0.043-0.389-0.126-0.566s-0.204-0.334-0.354-0.459c-0.15-0.125-0.326-0.216-0.515-0.265s-0.387-0.057-0.579-0.021c-1.745 0.32-3.949 0.369-4.535-1.277-0.511-1.275-1.357-2.387-2.449-3.22-0.078-0.042-0.152-0.091-0.222-0.146-0.096-0.252-0.265-0.469-0.487-0.623s-0.484-0.237-0.754-0.238h-0.006c-0.353 0-0.691 0.139-0.941 0.388s-0.391 0.586-0.393 0.939c-0.005 1.087 1.081 1.784 1.522 2.019 0.52 0.522 0.938 1.137 1.232 1.813 0.486 1.365 1.897 3.435 5.954 3.168 0.001 0.047 0.003 0.091 0.003 0.131l0.006 0.357c0 0.354 0.14 0.693 0.391 0.943s0.589 0.391 0.943 0.391c0.354 0 0.693-0.141 0.943-0.391s0.391-0.589 0.391-0.943l-0.007-0.425c-0.007-0.253-0.016-0.619-0.016-1.576zM26.316 7.169c0.042-0.167 0.084-0.352 0.121-0.56 0.216-1.486 0.028-3.002-0.544-4.391-0.072-0.181-0.183-0.344-0.325-0.478s-0.311-0.235-0.496-0.296c-0.475-0.16-2.227-0.475-5.579 1.667-2.786-0.656-5.686-0.656-8.472 0-3.338-2.111-5.081-1.824-5.551-1.673-0.189 0.059-0.363 0.159-0.509 0.294s-0.259 0.3-0.333 0.485c-0.584 1.415-0.77 2.962-0.538 4.475 0.033 0.171 0.068 0.328 0.104 0.473-1.105 1.471-1.693 3.266-1.674 5.105-0.004 0.41 0.015 0.821 0.057 1.229 0.445 6.137 4.445 7.979 7.232 8.612-0.058 0.167-0.111 0.345-0.158 0.534-0.084 0.343-0.028 0.705 0.155 1.007s0.478 0.519 0.821 0.603c0.343 0.084 0.705 0.029 1.008-0.153s0.52-0.477 0.605-0.82c0.085-0.444 0.302-0.852 0.624-1.171 0.194-0.17 0.335-0.393 0.405-0.642s0.066-0.512-0.011-0.759-0.224-0.465-0.423-0.63c-0.199-0.165-0.442-0.267-0.699-0.297-4.605-0.526-6.605-2.402-6.906-6.531-0.033-0.327-0.048-0.656-0.045-0.984-0.021-1.311 0.412-2.589 1.226-3.617 0.082-0.107 0.169-0.21 0.261-0.309 0.163-0.183 0.273-0.407 0.317-0.648s0.021-0.489-0.067-0.718c-0.090-0.241-0.159-0.489-0.207-0.741-0.109-0.718-0.073-1.45 0.105-2.154 1.159 0.327 2.25 0.86 3.22 1.573 0.161 0.107 0.342 0.178 0.533 0.209s0.385 0.020 0.571-0.032c2.695-0.731 5.536-0.731 8.23 0.001 0.187 0.051 0.383 0.061 0.574 0.030s0.373-0.104 0.534-0.213c0.966-0.716 2.052-1.253 3.207-1.587 0.177 0.687 0.217 1.402 0.117 2.104-0.048 0.277-0.124 0.548-0.225 0.81-0.088 0.229-0.111 0.477-0.067 0.718s0.154 0.465 0.317 0.648c0.103 0.116 0.206 0.241 0.298 0.358 0.808 1.011 1.234 2.274 1.203 3.568 0.002 0.346-0.014 0.692-0.050 1.036-0.294 4.074-2.301 5.952-6.928 6.479-0.257 0.029-0.499 0.133-0.699 0.297s-0.346 0.384-0.423 0.63c-0.077 0.247-0.081 0.51-0.011 0.759s0.211 0.472 0.405 0.642c0.331 0.327 0.549 0.751 0.622 1.211 0.090 0.357 0.131 0.725 0.123 1.093v3.112c-0.013 0.863-0.013 1.51-0.013 1.807 0 0.354 0.141 0.693 0.391 0.943s0.589 0.391 0.943 0.391 0.693-0.14 0.943-0.391c0.25-0.25 0.391-0.589 0.391-0.943 0-0.289 0-0.923 0.013-1.786v-3.133c0.011-0.59-0.059-1.178-0.206-1.749-0.042-0.187-0.094-0.373-0.155-0.555 2.028-0.337 3.871-1.383 5.201-2.951s2.059-3.558 2.060-5.614c0.044-0.425 0.064-0.852 0.061-1.279 0.030-1.842-0.564-3.639-1.684-5.102v-0z"></path>
</symbol>
<symbol id="icon-instagram" viewBox="0 0 28 32">
<path d="M14.006 8.813c-3.975 0-7.181 3.206-7.181 7.181s3.206 7.181 7.181 7.181 7.181-3.206 7.181-7.181-3.206-7.181-7.181-7.181zM14.006 20.663c-2.569 0-4.669-2.094-4.669-4.669s2.094-4.669 4.669-4.669 4.669 2.094 4.669 4.669-2.1 4.669-4.669 4.669zM23.156 8.519c0 0.931-0.75 1.675-1.675 1.675-0.931 0-1.675-0.75-1.675-1.675s0.75-1.675 1.675-1.675 1.675 0.75 1.675 1.675zM27.913 10.219c-0.106-2.244-0.619-4.231-2.262-5.869-1.637-1.638-3.625-2.15-5.869-2.263-2.313-0.131-9.244-0.131-11.556 0-2.237 0.106-4.225 0.619-5.869 2.256s-2.15 3.625-2.263 5.869c-0.131 2.313-0.131 9.244 0 11.556 0.106 2.244 0.619 4.231 2.263 5.869s3.625 2.15 5.869 2.262c2.313 0.131 9.244 0.131 11.556 0 2.244-0.106 4.231-0.619 5.869-2.262 1.637-1.637 2.15-3.625 2.262-5.869 0.131-2.313 0.131-9.238 0-11.55zM24.925 24.25c-0.488 1.225-1.431 2.169-2.663 2.663-1.844 0.731-6.219 0.563-8.256 0.563s-6.419 0.163-8.256-0.563c-1.225-0.488-2.169-1.431-2.663-2.663-0.731-1.844-0.563-6.219-0.563-8.256s-0.163-6.419 0.563-8.256c0.487-1.225 1.431-2.169 2.663-2.662 1.844-0.731 6.219-0.563 8.256-0.563s6.419-0.162 8.256 0.563c1.225 0.487 2.169 1.431 2.663 2.662 0.731 1.844 0.563 6.219 0.563 8.256s0.169 6.419-0.563 8.256z"></path>
</symbol>
<symbol id="icon-heart" viewBox="0 0 34 32">
<path d="M17.231 31.705l-2.412-2.412c-8.96-7.926-14.818-13.268-14.818-19.815 0-5.342 4.135-9.477 9.477-9.477 2.929 0 5.858 1.378 7.754 3.618 1.895-2.24 4.825-3.618 7.754-3.618 5.342 0 9.477 4.135 9.477 9.477 0 6.548-5.858 11.889-14.818 19.815l-2.412 2.412z"></path>
</symbol>
</defs>
</svg>
